<svg height="288" width="288" xmlns="http://www.w3.org/2000/svg" xmlns:xlink="http://www.w3.org/1999/xlink"><linearGradient id="a" gradientTransform="matrix(616.638 913.876 -1281.954 864.998 -667.667 -29.216)" gradientUnits="userSpaceOnUse" x2="1"><stop offset="0" stop-color="#ff5400"/><stop offset="1" stop-color="#ffd100"/></linearGradient><linearGradient id="b" gradientTransform="matrix(973.741 -1256.344 1989.415 1541.914 99.912 1431.781)" gradientUnits="userSpaceOnUse" x2="1"><stop offset="0" stop-color="#ee5a11"/><stop offset="1" stop-color="#ff8c00"/></linearGradient><linearGradient id="c" gradientTransform="matrix(399.705 -451.056 205.052 181.708 857.547 943.406)" gradientUnits="userSpaceOnUse" x2="1"><stop offset="0" stop-color="#f8bb15"/><stop offset="1" stop-color="#8d3002"/></linearGradient><linearGradient id="d" gradientTransform="matrix(-822.922 -841.004 402.484 -393.831 1391.185 376.488)" gradientUnits="userSpaceOnUse" x2="1"><stop offset="0" stop-color="#ee5a11"/><stop offset=".451" stop-color="#ffba00"/><stop offset="1" stop-color="#ff0"/></linearGradient><svg height="288" version="1.2" viewBox="0 0 754 757" width="288" xmlns="http://www.w3.org/2000/svg"><path d="m317.4.3-273.8 273.7c-57.4 57.5-57.4 151.4 0 208.9l78.7 78.6c-98.4-142.1 118-203.3 196.7-303.8 78.7-100.6-1.6-257.4-1.6-257.4z" fill="url(#a)"/><path d="m317.4 756.6-273.8-273.8c-57.4-57.4-57.4-151.3 0-208.8l78.7-78.6c-98.4 142.1 118 203.3 196.7 303.8 78.7 100.6-1.6 257.4-1.6 257.4z" fill="url(#b)"/><path d="m436.6 756.6 273.8-273.8c57.4-57.4 57.4-151.3 0-208.8l-78.7-78.6c98.4 142.1-118 203.3-196.7 303.8-78.7 100.6 1.6 257.4 1.6 257.4z" fill="url(#c)"/><path d="m436.6.3 273.8 273.7c57.4 57.5 57.4 151.4 0 208.9l-78.7 78.6c98.4-142.1-118-203.3-196.7-303.8-78.7-100.6 1.6-257.4 1.6-257.4z" fill="url(#d)"/><path d="m122.3 561.5c-54.8-79.2-11.8-133.3 50.6-183-62.4-49.8-105.4-103.9-50.6-183.1l-78.7 78.6c-57.4 57.5-57.4 151.4 0 208.9zm509.4 0c54.9-79.2 11.9-133.3-50.6-183 62.5-49.8 105.5-103.9 50.6-183.1l78.7 78.6c57.4 57.5 57.4 151.4 0 208.9z" fill="#ef5104" opacity=".2"/><path d="m172.9 378.5c15.3-12.3 31.8-24.2 48.3-36.2-68.8-23.5-119.5-59.5-98.9-146.9-54.8 79.2-11.8 133.3 50.6 183.1zm408.2 0c-15.3 12.2-31.8 24.1-48.3 36.1 68.8 23.5 119.5 59.5 98.9 146.9 54.8-79.2 11.8-133.3-50.6-183z" fill="#2d0f01" opacity=".1"/></svg></svg>